<?xml version="1.0" standalone="no"?>
<!DOCTYPE svg PUBLIC "-//W3C//DTD SVG 20010904//EN"
 "http://www.w3.org/TR/2001/REC-SVG-20010904/DTD/svg10.dtd">
<svg version="1.0" xmlns="http://www.w3.org/2000/svg"
 width="85.000000pt" height="85.000000pt" viewBox="0 0 741.000000 749.000000"
 preserveAspectRatio="xMidYMid meet">

<g transform="translate(0.000000,749.000000) scale(0.100000,-0.100000)"
fill="#000000" stroke="none">
<path d="M1105 6190 c-21 -22 -35 -40 -30 -39 10 1 82 79 73 79 -2 0 -22 -18
-43 -40z"/>
<path d="M1046 6114 c-5 -14 -4 -15 9 -4 17 14 19 20 6 20 -5 0 -12 -7 -15
-16z"/>
<path d="M1120 5942 c12 -18 24 -31 27 -28 3 2 -7 17 -22 33 l-28 28 23 -33z"/>
<path d="M1197 5883 c5 -12 3 -14 -8 -8 -8 5 -11 4 -6 0 4 -5 14 -10 22 -11
12 -2 12 2 5 17 -13 23 -22 25 -13 2z"/>
<path d="M1240 5813 c0 -5 10 -18 23 -29 l22 -19 -20 25 c-11 14 -21 27 -22
29 -2 2 -3 0 -3 -6z"/>
<path d="M1716 5692 c3 -45 4 -47 17 -33 9 10 9 15 0 18 -7 2 -10 10 -7 18 3
7 1 15 -3 18 -5 3 -8 -6 -7 -21z"/>
<path d="M1360 5674 c0 -14 -2 -15 -17 -3 -15 13 -15 12 -3 -11 13 -24 12 -24
-5 -10 -17 14 -18 13 -12 -2 4 -11 2 -17 -5 -15 -19 4 -17 -32 3 -38 19 -6 17
-25 -2 -25 -6 0 -7 5 -3 12 4 6 3 8 -4 4 -6 -3 -14 -1 -17 4 -9 14 -34 -18
-35 -44 0 -11 -3 -16 -7 -13 -10 10 -35 -31 -27 -45 4 -6 3 -8 -4 -4 -6 3 -26
-20 -48 -56 -21 -35 -56 -89 -78 -122 l-41 -58 -50 5 c-27 3 -113 15 -189 27
-206 30 -260 19 -301 -64 -18 -36 -18 -37 0 -30 11 5 13 2 9 -9 -3 -9 -11 -14
-19 -11 -17 7 -26 -21 -19 -54 4 -21 3 -24 -5 -12 -10 13 -11 13 -12 0 -1 -8
-1 -21 0 -29 2 -7 -2 -10 -9 -6 -9 5 -10 1 -5 -15 5 -17 4 -21 -6 -15 -9 6
-11 3 -6 -8 3 -10 2 -17 -2 -17 -5 0 -7 -8 -4 -19 3 -10 0 -22 -6 -25 -6 -4
-11 -12 -11 -17 0 -6 4 -8 9 -5 13 9 23 -26 11 -38 -7 -7 -10 -6 -10 4 0 7 -3
11 -6 8 -6 -7 13 -46 31 -65 7 -6 57 -43 111 -82 55 -39 125 -89 157 -112 66
-47 66 -47 38 -176 -11 -48 -27 -126 -35 -171 -19 -99 -28 -118 -58 -125 -13
-3 -124 -18 -247 -32 -123 -14 -232 -30 -242 -36 -49 -26 -50 -38 -47 -339 l3
-282 31 -27 c24 -22 45 -30 95 -35 109 -11 352 -46 401 -57 l46 -11 12 -71 c7
-40 24 -136 39 -215 23 -120 26 -145 15 -161 -8 -10 -80 -64 -161 -119 -82
-56 -159 -112 -171 -125 -42 -45 -40 -90 13 -218 100 -245 93 -241 363 -210
108 12 206 23 216 24 16 2 51 -46 157 -213 76 -118 138 -222 138 -230 1 -14
-30 -53 -221 -279 -71 -83 -78 -96 -78 -135 0 -55 21 -82 180 -233 201 -190
205 -193 249 -193 43 0 47 2 278 168 78 56 148 102 155 102 18 0 322 -201 360
-237 36 -34 36 -47 -8 -260 -50 -242 -53 -236 173 -323 142 -54 193 -61 232
-31 13 10 70 85 125 167 56 82 113 155 127 163 23 13 43 10 205 -24 98 -21
189 -42 202 -46 13 -5 29 -24 37 -42 13 -30 36 -212 51 -392 3 -44 12 -90 20
-102 25 -40 72 -45 356 -41 l268 3 26 26 c25 25 27 35 44 236 21 236 31 287
63 307 22 13 346 86 384 86 36 0 74 -41 160 -171 46 -71 98 -143 115 -160 28
-28 37 -31 77 -27 44 5 177 53 287 104 38 18 56 34 68 59 16 32 15 42 -19 213
-41 211 -42 232 -12 259 20 19 273 186 343 228 l32 18 85 -61 c47 -34 120 -90
163 -125 114 -91 125 -97 164 -97 51 0 66 11 294 228 132 124 156 155 156 200
0 42 -12 59 -163 230 -168 192 -157 166 -104 264 35 65 126 216 215 355 5 9
37 8 137 -7 72 -11 173 -22 226 -26 l95 -7 36 32 c25 22 52 68 96 163 99 218
100 216 -138 378 -82 57 -155 109 -162 117 -13 16 -12 21 45 286 19 88 40 163
47 167 15 9 32 12 307 49 191 26 206 29 231 54 l27 27 3 264 c2 145 -1 278 -5
297 -16 59 -40 68 -244 89 -345 35 -331 31 -344 116 -4 27 -22 117 -41 199
l-34 150 33 30 c19 17 91 70 161 120 152 107 180 136 172 179 -9 48 -96 266
-106 266 -5 0 -7 7 -4 15 4 8 2 15 -4 15 -5 0 -12 9 -15 20 -7 29 -71 53 -116
45 -20 -4 -52 -9 -71 -11 -19 -2 -44 -5 -55 -8 -11 -2 -48 -7 -82 -11 -35 -4
-61 -10 -59 -14 6 -9 -126 -8 -141 2 -6 4 -15 2 -19 -4 -4 -7 -3 -9 3 -6 6 4
13 0 17 -8 3 -9 12 -12 22 -8 12 4 15 3 10 -5 -5 -8 -2 -10 8 -6 9 3 16 1 16
-4 0 -13 36 -7 54 8 7 5 16 7 19 4 3 -3 12 -2 19 2 7 5 24 7 36 5 13 -1 50 7
82 19 48 18 64 20 87 11 l28 -11 -27 5 c-16 3 -28 1 -28 -5 0 -5 7 -10 15 -10
28 0 27 -27 -1 -55 -19 -19 -29 -23 -34 -15 -6 9 -9 9 -15 1 -4 -8 -11 -9 -18
-3 -7 5 -37 10 -68 11 -43 1 -61 -3 -78 -19 -47 -40 -127 -61 -230 -59 -98 1
-135 -6 -125 -23 3 -5 -1 -17 -11 -28 -9 -10 -17 -27 -18 -39 -1 -16 -6 -19
-27 -16 -24 4 -24 4 3 -7 15 -7 27 -16 27 -20 0 -14 -51 3 -71 23 -12 12 -25
16 -36 11 -16 -6 -15 -7 5 -10 12 -2 22 -9 22 -17 0 -7 6 -16 13 -18 7 -3 5
-6 -5 -6 -56 -3 28 -41 89 -41 40 0 125 -30 141 -49 7 -9 24 -38 37 -66 57
-116 23 -263 -117 -499 -41 -70 -71 -131 -70 -145 0 -15 10 -64 21 -111 11
-47 19 -85 18 -86 -6 -5 -148 97 -191 138 l-51 48 35 31 c32 28 34 31 18 43
-26 19 -22 40 16 80 31 34 35 35 65 25 38 -13 45 -8 60 45 12 45 8 54 -25 66
-23 9 -24 13 -23 102 1 51 4 83 6 71 5 -26 16 -29 31 -10 10 13 8 40 -8 81 -9
24 -14 26 -43 21 -26 -5 -37 -2 -56 19 -14 14 -21 26 -17 26 5 0 3 7 -4 15
-16 19 -27 19 -27 0 0 -10 6 -14 16 -10 13 5 13 3 -1 -12 -14 -13 -21 -14 -30
-5 -7 7 -23 12 -36 12 -13 0 -20 4 -17 10 3 6 1 10 -4 10 -6 0 -11 -9 -11 -21
0 -15 -5 -19 -16 -15 -8 3 -12 2 -9 -4 3 -6 18 -8 33 -4 23 4 24 4 9 -6 -9 -6
-15 -16 -11 -22 9 -15 -30 7 -45 26 -10 12 -8 16 8 21 12 3 21 13 21 21 0 22
-29 28 -49 10 -18 -16 -51 -13 -51 5 0 5 -5 9 -11 9 -5 0 -7 -4 -4 -10 3 -5 2
-10 -4 -10 -12 0 -23 32 -18 51 2 8 2 12 0 9 -2 -3 -22 -4 -45 -2 -34 4 -40 2
-35 -11 8 -22 -25 -51 -41 -35 -9 9 -12 9 -12 0 0 -20 -18 -14 -25 8 -4 11
-11 18 -16 15 -15 -10 -10 23 7 39 8 9 12 16 7 17 -4 0 6 7 22 14 23 11 25 14
10 14 -11 1 -25 -3 -31 -7 -16 -10 -43 -78 -46 -113 -3 -33 -4 -34 -24 -14
-10 9 -11 15 -4 15 7 0 9 8 5 20 -4 11 -3 19 2 18 4 -2 9 2 11 7 1 6 -3 10
-10 10 -6 0 -13 6 -16 14 -3 8 0 11 5 8 5 -3 10 0 10 8 0 20 -13 19 -21 -2 -6
-15 -10 -12 -28 15 -20 32 -20 33 -2 48 18 14 18 14 -3 4 -27 -13 -27 -9 -9
-52 16 -39 14 -45 -31 -76 -31 -22 -34 -22 -64 -6 -31 15 -33 15 -46 -2 -7
-10 -11 -24 -9 -31 3 -7 0 -13 -8 -13 -7 0 -13 -6 -13 -14 0 -8 8 -12 21 -10
12 3 15 2 9 -2 -10 -4 -9 -9 2 -21 16 -15 12 -77 -5 -96 -4 -4 -37 3 -73 17
-155 58 -420 90 -842 102 -377 10 -787 -19 -1065 -76 -323 -66 -578 -179 -896
-395 -95 -65 -131 -77 -274 -91 l-65 -6 30 26 c35 30 39 31 55 11 7 -8 25 -15
40 -15 23 0 33 9 55 47 30 50 30 48 -22 79 -17 10 -17 15 -3 70 14 55 17 59
47 62 43 4 55 22 51 79 l-3 48 -41 3 -40 3 -13 60 c-12 53 -12 62 3 78 19 21
22 38 3 23 -10 -8 -13 -6 -13 9 0 12 7 19 18 19 10 0 18 -5 18 -12 0 -6 3 -9
6 -6 6 7 -12 45 -33 70 -12 13 -20 15 -39 6 -28 -13 -21 -31 9 -23 19 5 20 5
5 -5 -13 -8 -24 -8 -37 0 -11 6 -24 9 -30 8 -12 -4 -61 53 -61 71 0 8 7 22 16
32 21 24 13 44 -27 64 -31 16 -32 16 -63 -12 -30 -28 -33 -29 -78 -19 -56 13
-60 16 -64 56 -5 40 -9 46 -34 53 -17 4 -18 3 -8 -16 11 -21 10 -21 -9 -4 -12
11 -27 15 -38 11 -14 -6 -16 -16 -12 -53 2 -25 3 -41 0 -35 -2 7 -20 6 -59 -3
l-56 -15 -33 32 c-32 31 -73 38 -67 11 2 -9 -3 -11 -14 -7 -14 5 -15 4 -4 -9
11 -13 10 -14 -2 -10 -13 5 -14 0 -8 -34 6 -36 4 -43 -23 -71 -16 -16 -34 -30
-39 -30 -5 0 -6 -4 -3 -10 10 -15 2 -12 -35 15 -32 24 -35 24 -53 7 -10 -9
-26 -30 -34 -47 -14 -27 -14 -30 2 -40 46 -28 46 -26 32 -95 l-14 -65 -46 -3
-47 -3 0 -65 0 -64 39 0 c42 0 53 -15 71 -94 7 -34 6 -38 -21 -52 -34 -17 -34
-15 -9 -62 35 -66 33 -66 74 -43 42 24 54 20 100 -28 29 -30 29 -31 11 -51
-17 -18 -17 -21 -1 -45 22 -33 91 -37 101 -5 5 15 15 20 43 20 61 0 72 -17 21
-30 -306 -77 -579 -279 -579 -427 0 -19 -7 -62 -16 -97 -17 -69 -18 -66 39
-413 l24 -142 -24 -73 c-31 -96 -26 -142 20 -184 l34 -32 151 6 150 5 27 -29
c15 -16 40 -45 56 -65 l29 -36 -66 -7 c-43 -4 -71 -3 -79 4 -25 21 -113 28
-173 14 -86 -21 -189 3 -234 53 -55 61 -61 151 -18 260 17 41 30 87 30 101 0
15 -11 86 -24 157 -51 275 -54 353 -20 491 5 19 1 20 -58 16 -51 -2 -69 1 -96
18 -61 38 -80 130 -39 191 29 43 60 59 119 59 39 0 54 -6 82 -31 19 -16 38
-39 41 -50 6 -18 14 -13 73 39 37 32 83 70 102 85 l35 26 -4 103 c-3 110 -9
128 -77 234 -56 88 -122 233 -141 308 -19 79 -10 151 27 211 26 42 109 85 164
85 78 0 245 95 315 179 43 51 53 73 24 50 -15 -11 -14 -10 1 9 21 24 31 29 20
10 -4 -7 2 -4 14 6 12 11 22 25 22 33 0 7 6 12 13 11 6 -2 12 5 12 14 0 9 4
20 9 25 5 5 6 2 1 -7 -5 -8 4 -4 19 10 17 15 25 31 22 43 -3 14 -1 16 8 8 15
-12 36 4 36 29 1 22 25 50 44 50 10 0 14 5 11 10 -3 6 -2 10 4 10 5 0 13 -4
16 -10 3 -5 1 -10 -4 -10 -6 0 -11 -5 -11 -11 0 -6 6 -9 13 -6 7 3 19 -4 26
-15 17 -27 22 -18 12 20 -13 43 2 41 18 -3 13 -36 8 -60 -11 -49 -6 4 -6 0 1
-13 6 -11 8 -23 5 -26 -8 -8 164 -214 184 -221 9 -3 23 -9 30 -12 8 -4 6 3 -5
15 -10 12 -17 25 -16 29 1 4 -3 13 -9 20 -13 15 4 16 20 0 8 -8 12 -9 12 -1 0
6 -6 14 -12 17 -10 5 -10 7 0 12 10 5 9 10 -5 21 -14 12 -15 14 -2 10 12 -4
15 0 11 20 -3 18 -9 23 -23 20 -13 -4 -19 0 -19 13 0 10 -7 24 -16 31 -15 12
-16 11 -9 -11 4 -14 11 -29 15 -35 5 -5 10 -19 12 -30 1 -11 10 -23 18 -27 13
-6 12 -7 -1 -7 -23 -1 -31 -28 -18 -54 9 -19 7 -18 -10 3 -14 17 -16 27 -8 32
6 4 8 10 4 15 -5 4 -13 1 -18 -7 -9 -13 -10 -12 -6 2 3 9 1 32 -5 52 -10 30
-15 35 -36 31 -24 -4 -72 32 -72 55 0 18 10 11 20 -14 6 -17 16 -24 34 -22 29
1 41 24 31 57 -5 15 -4 19 4 15 6 -4 11 -24 11 -44 1 -39 32 -117 42 -106 4 3
-2 20 -13 37 -21 35 -25 77 -8 77 8 0 8 5 -1 15 -9 10 -9 15 -1 15 6 0 11 4
11 10 0 5 -6 7 -14 4 -8 -3 -20 4 -28 15 -8 12 -18 18 -23 13 -5 -4 -5 -2 -1
5 3 6 2 14 -4 18 -7 4 -7 12 0 25 5 10 10 35 10 54 0 20 5 36 10 36 6 0 10 8
10 18 -1 16 -1 16 -14 -1 -10 -13 -15 -15 -19 -5 -4 10 -7 11 -18 1 -11 -11
-10 -13 4 -13 13 0 17 -9 17 -41 0 -33 -3 -40 -16 -35 -9 3 -22 6 -30 6 -9 0
-14 11 -14 35 l0 35 -52 1 c-29 1 -59 1 -65 0 -7 -1 -13 3 -13 10 0 8 -4 8
-15 -1 -25 -21 -29 -3 -6 29 19 27 20 31 5 45 -14 15 -14 16 6 16 14 0 19 -4
14 -12 -5 -8 -2 -9 11 -5 17 7 17 6 0 -19 -12 -19 -14 -29 -6 -37 8 -8 11 -8
11 1 0 7 18 13 48 14 l47 1 -42 4 c-24 2 -43 8 -43 14 0 5 19 9 43 10 36 1 38
2 17 9 -24 8 -24 8 7 9 17 1 34 4 36 9 3 4 -37 7 -89 8 -86 0 -92 -1 -79 -16
8 -9 15 -22 15 -28 0 -17 -20 -15 -26 3 -4 8 -12 15 -20 15 -9 0 -11 6 -7 18
6 15 5 15 -12 -2 -18 -18 -19 -18 -26 0 -7 18 -8 18 -9 -1 -1 -20 -2 -20 -9 0
-8 19 -8 19 -19 0 -12 -19 -12 -19 -23 -2 -10 18 -11 18 -25 0 -13 -17 -13
-17 -14 1 0 17 -6 18 -54 13 -41 -4 -58 -2 -67 9 -16 19 -79 19 -79 -1 0 -13
-9 -17 -37 -14 -5 0 -7 7 -7 15 2 11 -1 12 -12 3 -9 -7 -14 -8 -14 -1 0 5 14
15 30 21 17 5 30 15 30 20 0 6 -6 8 -14 5 -11 -4 -13 0 -9 15 3 12 3 21 -1 21
-3 0 -6 -7 -6 -16z m104 -93 c3 -4 -1 -17 -9 -27 -14 -18 -14 -18 -15 9 0 26
13 36 24 18z m-154 -22 c0 -5 -4 -9 -10 -9 -5 0 -10 5 -10 11 0 5 -5 7 -12 3
-7 -4 -8 -3 -4 4 7 12 36 5 36 -9z m-49 -61 c-11 -18 -21 -29 -21 -25 0 13 33
67 38 62 3 -2 -5 -19 -17 -37z m20 -11 c-10 -9 -11 -8 -5 6 3 10 9 15 12 12 3
-3 0 -11 -7 -18z m489 -88 c5 9 10 8 20 -4 11 -13 10 -15 -4 -9 -9 3 -16 1
-16 -5 0 -6 5 -11 12 -11 6 0 8 -3 4 -7 -8 -9 -36 25 -35 41 0 6 3 5 6 -3 4
-10 7 -10 13 -2z m-56 -109 c-6 -5 -24 21 -24 34 0 6 6 1 14 -10 8 -10 12 -21
10 -24z m265 -9 c-1 -13 -2 -12 -6 2 -2 9 -9 17 -14 17 -5 0 -9 8 -9 18 1 15
2 15 15 -2 8 -11 14 -27 14 -35z m-248 -4 c-10 -9 -11 -8 -5 6 3 10 9 15 12
12 3 -3 0 -11 -7 -18z m5148 9 c15 -8 35 -26 45 -40 19 -30 21 -40 4 -30 -8 5
-9 2 -5 -9 3 -10 2 -17 -3 -17 -9 0 -14 23 -13 58 1 8 -7 11 -21 7 -16 -5 -18
-4 -6 4 12 8 8 13 -20 25 -19 8 -29 15 -22 16 7 0 26 -7 41 -14z m-6282 -12
c-3 -3 -12 -4 -19 -1 -8 3 -5 6 6 6 11 1 17 -2 13 -5z m6251 -3 c9 -5 4 -8
-16 -7 -17 1 -28 4 -25 9 6 9 25 9 41 -2z m-6211 -7 c-3 -3 -12 -4 -19 -1 -8
3 -5 6 6 6 11 1 17 -2 13 -5z m6008 -4 c-11 -5 -29 -8 -40 -8 -16 0 -15 2 5 8
34 11 60 11 35 0z m-148 -16 c-3 -3 -12 -4 -19 -1 -8 3 -5 6 6 6 11 1 17 -2
13 -5z m336 -1 c-7 -2 -19 -2 -25 0 -7 3 -2 5 12 5 14 0 19 -2 13 -5z m-5169
-29 c3 -8 2 -12 -4 -9 -6 3 -10 10 -10 16 0 14 7 11 14 -7z m456 -14 c0 -5 -4
-10 -10 -10 -5 0 -10 5 -10 10 0 6 5 10 10 10 6 0 10 -4 10 -10z m-81 -40 c0
-10 -3 -8 -9 5 -12 27 -12 43 0 25 5 -8 9 -22 9 -30z m4541 6 c0 -11 -19 -15
-25 -6 -3 5 1 10 9 10 9 0 16 -2 16 -4z m-4746 -164 c3 -5 -1 -9 -9 -9 -8 0
-12 4 -9 9 3 4 7 8 9 8 2 0 6 -4 9 -8z m50 -39 c4 -9 0 -23 -8 -32 -14 -13
-16 -12 -24 10 -6 16 -6 26 2 31 17 12 23 10 30 -9z m4253 -9 c-3 -3 -12 -4
-19 -1 -8 3 -5 6 6 6 11 1 17 -2 13 -5z m-4481 -17 c4 -4 2 -7 -4 -7 -7 0 -12
-7 -12 -15 0 -19 -23 -15 -31 5 -10 24 27 37 47 17z m458 -17 c-6 -6 -10 -3
-10 10 0 13 4 16 10 10 7 -7 7 -13 0 -20z m-204 4 c0 -8 -5 -12 -10 -9 -6 4
-8 11 -5 16 9 14 15 11 15 -7z m164 8 c3 -5 -1 -9 -9 -9 -8 0 -12 4 -9 9 3 4
7 8 9 8 2 0 6 -4 9 -8z m4221 -22 c3 -6 -1 -7 -9 -4 -18 7 -21 14 -7 14 6 0
13 -4 16 -10z m-4541 -15 c-4 -8 -11 -15 -16 -15 -6 0 -5 6 2 15 7 8 14 15 16
15 2 0 1 -7 -2 -15z m-50 -11 c3 -8 -1 -14 -10 -14 -8 0 -12 -4 -9 -10 3 -5 1
-10 -4 -10 -6 0 -11 4 -11 9 0 5 -2 16 -5 23 -3 8 2 14 14 15 11 1 22 -5 25
-13z m-100 -18 c-3 -9 -10 -16 -15 -16 -5 0 -4 9 3 20 14 22 21 20 12 -4z
m506 14 c0 -5 -9 -14 -20 -20 -16 -9 -18 -8 -14 5 3 8 10 12 15 9 5 -3 9 0 9
5 0 6 2 11 5 11 3 0 5 -4 5 -10z m-53 -16 c-3 -3 -12 -4 -19 -1 -8 3 -5 6 6 6
11 1 17 -2 13 -5z m-496 -37 c-10 -9 -11 -8 -5 6 3 10 9 15 12 12 3 -3 0 -11
-7 -18z m306 -3 c-3 -3 -12 -4 -19 -1 -8 3 -5 6 6 6 11 1 17 -2 13 -5z m243
-10 c0 -8 5 -12 11 -8 8 4 8 0 0 -15 -13 -23 -23 -29 -15 -7 3 7 -2 21 -11 30
-15 14 -15 16 -1 16 9 0 16 -7 16 -16z m3407 1 c0 -8 -4 -12 -8 -10 -3 3 -12
-2 -19 -10 -7 -8 -17 -15 -22 -15 -10 0 32 50 43 50 3 0 6 -7 6 -15z m-3370
-37 c-3 -8 -6 -5 -6 6 -1 11 2 17 5 13 3 -3 4 -12 1 -19z m-181 -43 c25 -15
48 -33 51 -41 3 -8 12 -13 20 -10 8 3 11 1 8 -4 -3 -6 3 -22 13 -38 66 -92 52
-244 -31 -330 -56 -58 -102 -77 -192 -77 -93 0 -125 14 -190 81 -62 63 -79
115 -72 213 4 68 10 86 36 125 58 85 133 119 244 111 50 -3 80 -11 113 -30z
m31 3 c-3 -8 -6 -5 -6 6 -1 11 2 17 5 13 3 -3 4 -12 1 -19z m3806 9 c-3 -5 0
-8 7 -5 7 2 32 -13 54 -33 22 -21 44 -35 50 -32 5 3 6 1 2 -5 -3 -6 2 -25 13
-44 25 -45 34 -110 20 -161 -13 -50 -62 -118 -102 -140 -27 -16 -28 -16 -108
43 -44 33 -121 81 -170 106 -81 42 -89 49 -89 75 0 42 44 123 83 153 19 14 51
32 73 40 44 17 177 19 167 3z m213 -32 c-8 -8 -18 -15 -22 -15 -3 0 -1 7 6 15
7 8 17 15 22 15 5 0 3 -7 -6 -15z m11 -47 c-3 -8 -6 -5 -6 6 -1 11 2 17 5 13
3 -3 4 -12 1 -19z m-1082 -8 c3 -6 -4 -10 -17 -10 -34 -1 -106 -36 -155 -76
-61 -50 -125 -144 -197 -291 -86 -173 -85 -169 -39 -177 21 -3 52 -6 68 -6 27
0 35 -8 69 -67 22 -38 52 -85 69 -106 l30 -39 -106 4 c-59 1 -107 2 -107 2 0
-1 6 -17 14 -35 22 -54 54 -223 71 -378 9 -79 14 -145 13 -147 -2 -2 -14 58
-26 134 -12 75 -36 203 -54 283 l-31 147 -186 8 c-295 14 -463 5 -841 -46 -80
-11 -242 -26 -360 -34 -118 -9 -280 -24 -360 -36 -346 -48 -371 -50 -947 -50
l-553 0 61 55 c172 159 428 262 814 329 145 26 131 18 -65 -35 -330 -89 -464
-144 -602 -246 -43 -31 -76 -59 -74 -60 2 -2 41 20 87 48 197 123 463 213 884
300 114 23 166 37 130 34 -39 -3 -55 -1 -45 5 8 5 23 10 33 10 11 0 81 34 157
75 252 137 417 204 634 260 273 70 539 95 999 95 l318 0 -81 -82 c-45 -45
-115 -127 -156 -183 -41 -55 -87 -114 -102 -131 l-27 -31 -145 10 c-197 13
-1213 14 -1315 1 -65 -8 -34 -10 160 -6 335 7 997 -20 1347 -54 l66 -7 32 64
c82 162 255 389 333 438 18 11 62 24 97 29 91 13 98 13 105 2z m1200 -39 c3
-5 2 -12 -3 -15 -5 -3 -9 1 -9 9 0 17 3 19 12 6z m-1085 -61 c19 0 64 -127
128 -357 l29 -103 -31 1 c-17 0 -51 4 -76 7 l-45 7 38 22 c33 20 37 27 37 62
0 34 -6 44 -41 75 -49 41 -140 80 -229 96 -36 6 -75 13 -88 16 l-23 5 30 42
c37 55 104 115 133 121 13 3 32 7 43 10 11 2 33 2 49 0 16 -2 36 -4 46 -4z
m136 -29 c94 -30 213 -80 297 -123 71 -37 80 -46 111 -102 61 -111 136 -258
136 -267 0 -5 -19 -6 -42 -3 -292 35 -433 55 -438 61 -4 4 -17 52 -30 105 -12
53 -44 153 -70 222 -30 80 -42 126 -35 126 7 0 39 -9 71 -19z m-261 -196 c64
-17 155 -62 155 -78 0 -6 -24 -7 -61 -3 -37 5 -64 3 -68 -2 -3 -6 -41 -12 -83
-14 -43 -2 -81 -7 -84 -11 -4 -4 -23 -7 -43 -6 -28 0 -32 2 -16 8 11 5 25 6
31 4 7 -2 15 1 19 7 5 9 -5 11 -36 8 -37 -2 -44 0 -43 15 1 10 12 33 25 52 23
33 27 35 84 35 34 0 87 -7 120 -15z m1115 -384 c114 -56 141 -79 172 -142 70
-145 99 -388 89 -752 l-3 -127 38 -73 c90 -174 18 -305 -170 -307 l-58 0 40
39 c89 87 133 246 135 491 1 230 -36 383 -110 458 -38 37 -48 42 -88 42 -57 0
-91 -17 -138 -69 -83 -92 -128 -234 -129 -407 l-1 -111 -131 -17 c-72 -9 -192
-23 -266 -32 -74 -8 -187 -21 -251 -29 -63 -8 -126 -15 -140 -15 -106 2 293
94 586 136 66 10 123 20 126 23 4 3 10 26 14 50 7 40 6 43 -11 36 -120 -54
-564 -162 -864 -210 -52 -8 -131 -22 -175 -30 -166 -31 -167 -31 -163 -5 4 32
21 36 723 192 127 28 291 65 365 82 l135 32 6 72 c4 40 10 79 13 87 7 19 10
20 -70 -11 -90 -34 -158 -56 -469 -154 -207 -65 -594 -193 -675 -224 -13 -5
-15 18 -15 176 -1 207 -13 272 -72 396 -41 88 -134 187 -208 223 -40 19 -66
24 -125 24 -96 0 -150 -24 -231 -102 -143 -136 -217 -340 -253 -698 -12 -126
-29 -195 -45 -195 -21 0 13 369 55 600 3 17 0 14 -10 -10 l-14 -35 -3 35 c-1
24 -3 28 -6 13 -6 -29 -20 -30 -19 -2 1 20 -5 21 -84 23 -47 1 -94 -2 -104 -7
-16 -8 -18 -6 -12 8 6 15 4 16 -10 4 -14 -11 -17 -10 -26 4 -5 10 -14 14 -20
11 -8 -5 -9 -1 -4 11 6 16 4 16 -10 4 -10 -8 -12 -15 -5 -17 6 -2 11 -11 11
-20 0 -15 -2 -15 -10 -2 -15 23 -13 4 15 -137 30 -156 65 -402 64 -446 0 -18
-22 51 -49 153 -26 102 -59 230 -74 285 -14 55 -26 117 -26 139 0 31 -3 37
-16 32 -9 -4 -134 -24 -278 -46 -144 -22 -276 -44 -294 -49 -17 -5 -32 -8 -32
-5 0 2 25 20 55 40 30 20 52 41 48 47 -4 6 0 8 10 4 10 -3 17 -2 17 3 0 5 9
12 20 15 11 4 17 11 14 17 -5 7 -2 9 7 6 8 -3 26 0 40 8 16 9 19 13 8 14 -9 0
-19 -3 -23 -7 -4 -4 -13 -8 -19 -9 -7 0 -21 -2 -32 -3 -17 -1 -18 -3 -5 -11 8
-5 11 -10 5 -11 -5 0 -20 -2 -31 -5 -13 -2 -28 4 -35 13 -11 13 -11 15 -1 9 7
-4 20 -5 29 -2 13 5 13 9 2 23 -12 14 -29 15 -124 9 -60 -4 -122 -8 -137 -10
-34 -4 -44 4 -93 74 -21 30 -54 72 -74 93 l-35 37 77 0 c67 0 86 -4 140 -31
63 -33 302 -98 454 -124 107 -19 324 -19 376 -1 63 23 141 84 237 185 50 53
97 103 104 112 21 26 170 44 361 44 164 0 172 -1 228 -27 207 -97 322 -324
344 -675 3 -57 8 -103 10 -103 2 0 90 33 196 74 175 68 311 113 637 213 220
67 335 107 353 121 25 22 14 25 -28 8 -45 -19 -48 -19 -39 -4 5 8 2 9 -9 5
-42 -16 -303 -97 -312 -97 -11 1 108 52 329 141 82 33 174 74 205 90 l56 30
-82 -5 c-81 -5 -113 -15 -313 -91 -74 -28 -339 -124 -450 -163 -8 -3 -12 -2
-8 3 12 13 -12 35 -29 28 -11 -4 -14 -2 -9 5 8 13 -83 -23 -98 -39 -6 -5 -17
-9 -25 -9 -36 0 222 147 500 286 l196 97 29 -20 c16 -12 37 -23 46 -25 16 -3
97 41 98 54 0 11 -87 21 -126 15 -51 -9 -43 17 13 38 39 15 65 17 166 11 66
-3 118 -4 115 -1 -3 3 -41 13 -84 21 -63 12 -189 17 -617 21 -296 3 -536 8
-534 12 1 3 22 46 45 94 l43 89 57 -6 c31 -3 120 -11 197 -16 250 -19 387 -30
548 -45 180 -17 189 -17 125 -2 l-46 12 -76 150 -75 150 162 -166 c149 -153
169 -170 247 -208z m-1348 267 c-7 -7 -12 -8 -12 -2 0 6 3 14 7 17 3 4 9 5 12
2 2 -3 -1 -11 -7 -17z m1878 -325 c34 -20 70 -81 70 -118 0 -73 -62 -135 -135
-135 -133 0 -186 181 -72 250 39 24 99 26 137 3z m-1196 -47 c19 -8 37 -19 41
-26 7 -12 -21 -50 -37 -50 -5 0 -27 -14 -48 -31 -39 -32 -66 -33 -90 -5 -9 11
-5 14 23 13 19 0 50 9 72 23 l39 24 -30 8 c-16 5 -59 6 -96 3 -38 -3 -68 -2
-68 2 0 17 85 53 123 53 21 0 53 -6 71 -14z m-1774 -44 c0 -12 -182 -188 -224
-216 -30 -20 -51 -26 -95 -26 -81 0 -311 22 -311 31 0 11 70 20 200 24 l125 5
43 47 c24 27 52 65 63 85 17 33 24 37 66 43 27 3 55 8 63 9 31 7 70 6 70 -2z
m-642 -119 c83 -21 63 -33 -57 -33 -69 0 -116 6 -173 22 -43 13 -78 26 -78 29
0 12 246 -2 308 -18z m-698 7 c38 -11 90 -63 142 -143 l31 -49 -26 -51 c-68
-138 -227 -461 -229 -469 -4 -10 -636 -9 -787 1 l-94 6 -24 95 c-13 52 -39
162 -59 243 l-35 148 26 56 c23 51 68 115 111 158 13 13 75 15 462 15 267 0
461 -4 482 -10z m1991 -104 c81 -54 149 -172 186 -325 25 -100 22 -323 -6
-424 -45 -171 -137 -300 -233 -331 -88 -27 -149 -6 -228 80 -47 51 -89 137
-116 235 -26 93 -26 336 0 439 28 116 80 216 145 281 84 84 170 99 252 45z
m1901 -217 c88 -142 94 -468 11 -621 -47 -86 -108 -106 -162 -53 -69 65 -111
259 -92 423 18 153 71 279 131 309 36 18 80 -5 112 -58z m-2532 47 c0 -3 -4
-8 -10 -11 -5 -3 -10 -1 -10 4 0 6 5 11 10 11 6 0 10 -2 10 -4z m-948 -133
c15 -15 28 -31 28 -37 0 -5 -31 -59 -69 -120 -38 -61 -89 -145 -113 -186 -41
-70 -47 -76 -103 -99 l-59 -23 -568 7 c-312 4 -568 11 -568 15 0 31 30 33 559
31 l528 -2 59 77 c61 80 196 262 242 326 15 21 29 37 31 38 3 0 18 -12 33 -27z
m493 -13 c9 -14 -19 -56 -48 -74 -12 -8 -92 -24 -177 -35 -85 -12 -172 -24
-193 -27 l-38 -6 20 41 c12 23 25 41 30 41 19 0 376 62 380 66 8 7 20 4 26 -6z
m62 -86 c8 -21 31 -97 52 -169 21 -71 42 -139 47 -149 6 -16 4 -18 -12 -12
-10 5 -38 13 -61 18 -48 11 -39 -7 -88 186 l-26 104 26 35 c15 19 32 32 38 30
6 -2 17 -21 24 -43z m-1532 -228 c226 -3 421 -9 435 -13 l25 -7 -30 -7 c-40
-9 -520 -11 -716 -2 l-156 6 0 29 c0 25 2 26 16 14 13 -11 100 -15 426 -20z
m1283 5 c12 -7 -166 -21 -281 -21 -83 0 -44 13 61 20 146 10 206 11 220 1z
m2861 -58 c20 -71 30 -68 -239 -83 -96 -5 -256 -14 -355 -20 -99 -6 -265 -15
-370 -20 -104 -5 -232 -13 -282 -16 -51 -4 -93 -4 -93 -1 0 3 5 17 11 31 10
21 20 25 83 31 39 4 148 15 241 25 94 11 258 26 365 35 107 10 276 25 375 35
266 26 252 27 264 -17z m-2669 -98 c22 -13 -12 -14 -289 -15 -173 0 -312 3
-309 6 5 5 115 9 533 22 22 1 51 -5 65 -13z m173 -144 c21 -5 33 -18 52 -58
l24 -53 -619 0 -620 0 42 60 41 60 526 -1 c289 -1 538 -4 554 -8z m2190 -56
l38 -55 -293 0 c-161 0 -324 -3 -362 -7 -65 -6 -68 -5 -57 13 36 64 24 61 311
82 146 11 279 20 295 20 25 1 36 -7 68 -53z m-3625 -346 c56 -61 102 -117 102
-123 0 -7 -25 -37 -56 -66 l-56 -53 -50 49 c-57 57 -249 269 -261 290 -7 12
11 14 105 14 l113 0 103 -111z m3922 103 c0 -18 -319 -342 -337 -342 -8 0 -37
16 -64 36 -44 32 -48 38 -36 54 29 41 223 248 237 253 19 6 200 5 200 -1z
m-3330 -7 c0 -13 -163 -185 -175 -185 -7 0 -57 39 -111 88 l-99 87 190 5 c105
3 191 7 193 8 1 1 2 0 2 -3z m2810 -16 c0 -11 -190 -179 -202 -179 -11 0 -177
168 -178 180 0 3 86 5 190 5 105 0 190 -3 190 -6z m-556 -113 c31 -40 56 -76
56 -80 0 -3 -497 -7 -1105 -8 -608 -2 -1105 -2 -1105 -1 0 3 7 11 80 101 l51
62 984 0 984 0 55 -74z m-1671 -260 c33 -15 83 -54 76 -59 -2 -2 -19 -14 -37
-26 l-33 -23 -20 21 c-29 31 -92 29 -124 -4 -77 -76 39 -183 122 -111 26 23
28 23 63 8 19 -9 37 -18 39 -19 8 -5 -53 -64 -81 -79 -37 -19 -132 -18 -175 2
-118 57 -108 243 17 293 37 15 116 13 153 -3z m237 -46 l0 -60 70 0 70 0 0 60
0 60 45 0 45 0 0 -150 0 -150 -45 0 -45 0 0 55 0 55 -70 0 -70 0 0 -55 0 -55
-45 0 -45 0 0 150 0 150 45 0 45 0 0 -60z m550 25 l0 -35 -50 0 -50 0 0 -115
0 -115 -40 0 -39 0 -3 113 -3 112 -47 3 c-29 2 -48 8 -48 15 0 7 -3 22 -6 35
l-6 22 146 0 146 0 0 -35z m130 -55 c0 -83 2 -93 25 -115 27 -28 62 -32 91
-11 16 12 20 30 24 113 l5 98 44 3 43 3 -4 -110 c-3 -91 -7 -115 -24 -138 -45
-61 -132 -79 -211 -44 -62 29 -77 58 -81 167 -3 51 -2 100 2 109 3 10 19 15
46 15 l40 0 0 -90z m485 5 c39 -46 73 -84 78 -84 4 -1 7 37 7 84 l0 85 44 -2
45 -3 3 -158 3 -157 -45 0 c-45 1 -46 2 -120 94 -85 105 -88 105 -89 -11 l-1
-73 -39 0 c-35 0 -39 3 -45 31 -3 17 -6 73 -6 124 0 51 3 107 6 124 6 29 9 31
48 30 39 0 44 -4 111 -84z m-2085 35 l0 -40 -55 0 -55 0 0 -130 c0 -128 0
-130 -22 -130 -13 0 -33 -3 -45 -6 -22 -6 -22 -5 -25 127 l-3 134 -57 0 -58
-1 0 38 c0 44 0 44 193 46 l127 2 0 -40z m350 5 c0 -34 -1 -35 -37 -35 -21 0
-62 -3 -90 -6 -46 -6 -53 -10 -53 -29 0 -21 3 -22 75 -17 l75 5 0 -42 0 -41
-81 0 c-78 0 -80 -1 -77 -22 3 -22 6 -23 101 -20 l97 4 0 -36 c0 -21 -6 -38
-12 -40 -7 -3 -73 -7 -145 -10 l-133 -5 0 164 0 165 140 0 140 0 0 -35z m2300
-5 l0 -40 -90 0 c-89 0 -90 0 -90 -25 0 -25 1 -25 80 -25 l80 0 0 -35 0 -35
-80 0 c-77 0 -80 -1 -80 -24 0 -21 5 -24 61 -30 34 -3 77 -6 95 -6 33 0 34 -1
34 -41 l0 -41 -47 6 c-27 3 -92 8 -145 12 l-98 6 0 159 0 159 140 0 140 0 0
-40z m-3102 -110 c18 -11 41 -34 52 -52 53 -88 -14 -198 -120 -198 -103 0
-175 102 -136 193 29 72 133 100 204 57z m3718 -11 c57 -52 65 -121 22 -182
-28 -39 -69 -57 -128 -57 -45 0 -55 4 -91 38 -33 31 -42 46 -46 82 -6 55 24
105 77 133 49 26 131 19 166 -14z m-2487 -257 l13 -26 19 24 c10 14 19 28 19
33 0 12 28 8 32 -5 7 -20 -3 -118 -12 -118 -4 0 -10 14 -14 31 -5 27 -8 30
-21 19 -8 -7 -15 -20 -15 -29 -1 -13 -5 -11 -19 7 -25 28 -31 28 -31 -3 0 -14
-4 -25 -10 -25 -11 0 -14 112 -4 123 11 10 31 -4 43 -31z m280 11 c14 -17 19
-34 15 -47 -8 -28 -41 -56 -67 -56 -27 0 -67 38 -67 65 0 64 79 90 119 38z
m181 13 c0 -7 -9 -16 -21 -19 -18 -5 -21 -12 -17 -51 2 -32 -1 -46 -9 -46 -9
0 -13 16 -13 49 0 40 -3 50 -20 54 -39 10 -20 27 30 27 36 0 50 -4 50 -14z
m184 -11 c32 -49 7 -105 -48 -105 -30 0 -66 39 -66 71 0 56 83 81 114 34z
m185 11 c8 -9 10 -28 5 -51 -5 -27 -3 -40 7 -46 7 -4 10 -11 7 -15 -4 -4 -19
1 -32 10 -31 20 -46 20 -46 1 0 -8 -7 -15 -15 -15 -12 0 -15 14 -15 65 l0 65
39 0 c21 0 44 -6 50 -14z m171 -1 c0 -11 -8 -13 -30 -8 -37 7 -42 -14 -5 -23
32 -8 48 -29 40 -53 -8 -28 -39 -35 -72 -17 l-28 14 35 9 35 9 -32 12 c-37 12
-39 18 -17 50 18 26 74 31 74 7z m-1369 -283 c76 -84 18 -215 -95 -215 -98 0
-165 99 -122 181 43 83 157 101 217 34z m1979 28 c59 -31 85 -111 55 -173 -22
-48 -60 -70 -117 -71 -56 -1 -95 24 -122 78 -53 108 73 222 184 166z m-988
-216 c63 -6 68 -8 78 -37 5 -16 10 -51 10 -77 0 -148 -194 -206 -285 -86 -54
71 -41 189 22 199 47 7 105 7 175 1z"/>
<path d="M2623 4173 c9 -2 23 -2 30 0 6 3 -1 5 -18 5 -16 0 -22 -2 -12 -5z"/>
<path d="M3450 4120 c-286 -19 -507 -78 -764 -206 -129 -65 -130 -73 -1 -15
314 140 578 184 1110 185 176 1 372 -2 435 -6 l115 -6 -120 19 c-218 34 -520
45 -775 29z"/>
<path d="M3775 3985 c-157 -18 -264 -40 -390 -79 -122 -39 -125 -47 -7 -17
261 67 776 97 1100 66 106 -10 -24 14 -158 29 -158 19 -389 19 -545 1z"/>
<path d="M5191 3438 c5 -10 12 -18 15 -18 3 0 2 5 -2 11 -3 6 0 15 7 20 10 6
8 8 -8 6 -17 -1 -20 -5 -12 -19z"/>
<path d="M1290 3588 c-33 -40 -64 -84 -67 -97 -3 -14 -1 -52 6 -86 21 -106 83
-359 93 -378 8 -16 35 -17 409 -15 l399 3 68 145 c38 80 90 193 116 253 l48
107 -27 38 c-16 20 -42 52 -58 70 l-31 32 -447 0 -448 0 -61 -72z m960 -48
c10 -6 -151 -10 -462 -10 -312 0 -478 3 -478 10 0 13 919 13 940 0z"/>
<path d="M4071 3500 c-40 -29 -94 -101 -107 -142 -4 -14 10 -38 53 -86 33 -36
64 -67 71 -70 15 -5 28 51 42 173 6 55 13 112 15 128 6 37 -20 36 -74 -3z"/>
<path d="M4206 3443 c-9 -113 -7 -231 4 -238 15 -10 140 107 140 131 0 35 -82
153 -121 175 -14 7 -17 -2 -23 -68z"/>
<path d="M3917 3208 c-20 -79 -19 -308 2 -308 3 0 34 26 69 58 58 54 62 61 62
101 0 41 -5 49 -64 108 -59 60 -64 63 -69 41z"/>
<path d="M4329 3165 c-85 -92 -86 -116 -3 -206 l52 -57 6 30 c8 43 7 261 -2
273 -4 6 -26 -11 -53 -40z"/>
<path d="M4123 3123 c-36 -55 -11 -163 37 -163 26 0 60 55 60 98 0 82 -60 122
-97 65z"/>
<path d="M4018 2855 c-38 -36 -68 -70 -68 -75 0 -16 39 -91 66 -127 24 -32
110 -90 120 -81 3 3 0 45 -5 94 -6 49 -13 119 -16 156 -10 105 -18 108 -97 33z"/>
<path d="M4211 2902 c-7 -13 -11 -81 -11 -173 l0 -153 45 44 c25 24 60 72 77
107 l33 63 -66 66 c-63 63 -67 66 -78 46z"/>
<path d="M6023 3340 c-11 -19 -26 -54 -32 -77 -13 -46 -7 -65 27 -96 20 -18
20 -18 27 45 4 35 5 86 3 113 l-3 50 -22 -35z"/>
<path d="M6100 3258 l1 -113 35 38 c30 33 34 43 29 70 -7 31 -51 117 -60 117
-3 0 -5 -51 -5 -112z"/>
<path d="M6152 3111 c-12 -21 -22 -51 -22 -67 0 -27 37 -94 53 -94 4 0 7 45 7
100 0 55 -4 100 -8 100 -5 0 -18 -17 -30 -39z"/>
<path d="M5950 3043 l1 -98 30 35 c24 29 29 42 25 72 -4 35 -33 87 -48 88 -5
0 -8 -44 -8 -97z"/>
<path d="M6044 3096 c-3 -7 -4 -38 -2 -67 4 -67 26 -74 47 -14 10 30 10 47 2
68 -11 29 -38 36 -47 13z"/>
<path d="M6095 2928 c-7 -29 -1 -186 8 -195 4 -3 21 24 38 60 l31 67 -21 34
c-12 18 -28 39 -36 46 -12 10 -15 7 -20 -12z"/>
<path d="M6001 2912 c-11 -17 -21 -44 -21 -61 0 -36 30 -100 56 -122 16 -13
16 -7 10 91 -4 58 -11 109 -16 113 -4 5 -17 -5 -29 -21z"/>
<path d="M3397 1554 c-13 -13 -7 -55 8 -60 21 -9 47 15 43 40 -3 21 -37 34
-51 20z"/>
<path d="M3762 1558 c-28 -28 -1 -75 38 -63 33 11 21 75 -15 75 -6 0 -16 -5
-23 -12z"/>
<path d="M3973 1563 c-14 -5 -18 -43 -5 -43 12 0 32 23 32 37 0 13 -6 15 -27
6z"/>
<path d="M1987 5634 c-30 -36 -31 -46 -1 -17 13 13 19 14 22 5 5 -16 19 -15
25 2 4 10 1 13 -9 9 -17 -6 -19 8 -2 25 7 7 8 12 3 11 -6 0 -23 -16 -38 -35z"/>
<path d="M1750 5631 c0 -6 4 -13 10 -16 6 -3 7 1 4 9 -7 18 -14 21 -14 7z"/>
<path d="M2000 5592 c0 -6 9 -12 20 -15 11 -3 20 -3 20 -1 0 2 -9 8 -20 14
-11 6 -20 7 -20 2z"/>
<path d="M2057 5526 c-4 -15 -6 -31 -2 -34 10 -10 16 6 13 35 l-3 28 -8 -29z"/>
<path d="M6276 5438 c3 -5 10 -6 15 -3 13 9 11 12 -6 12 -8 0 -12 -4 -9 -9z"/>
<path d="M5620 5370 c8 -5 20 -10 25 -10 6 0 3 5 -5 10 -8 5 -19 10 -25 10 -5
0 -3 -5 5 -10z"/>
<path d="M1820 5360 c-8 -5 -11 -12 -8 -16 4 -3 14 1 23 10 18 17 9 21 -15 6z"/>
<path d="M1870 5351 c0 -5 10 -20 23 -33 12 -13 16 -17 10 -8 -7 9 -13 22 -13
28 0 6 -4 14 -10 17 -5 3 -10 2 -10 -4z"/>
<path d="M2085 5340 c-3 -5 -5 -10 -3 -11 38 -8 56 -6 51 7 -6 16 -39 19 -48
4z"/>
<path d="M6357 5333 c-11 -11 -8 -20 7 -20 8 0 12 6 9 14 -6 15 -7 15 -16 6z"/>
<path d="M2511 5315 c1 -19 18 -51 18 -35 0 8 -4 22 -9 30 -5 8 -9 11 -9 5z"/>
<path d="M2212 5274 c-1 -22 -5 -44 -9 -48 -5 -4 -8 -19 -8 -33 -1 -21 1 -22
10 -9 9 12 15 13 25 3 12 -10 12 -9 3 3 -7 9 -13 40 -16 70 -3 45 -4 48 -5 14z"/>
<path d="M6369 5283 c-12 -16 -12 -17 2 -6 9 7 20 9 24 5 5 -4 5 -1 1 6 -9 16
-11 15 -27 -5z"/>
<path d="M4360 5270 c0 -5 5 -10 10 -10 6 0 10 5 10 10 0 6 -4 10 -10 10 -5 0
-10 -4 -10 -10z"/>
<path d="M2120 5265 c0 -5 5 -17 10 -25 5 -8 10 -10 10 -5 0 6 -5 17 -10 25
-5 8 -10 11 -10 5z"/>
<path d="M2566 5263 c-3 -3 -6 -17 -6 -29 0 -13 -5 -26 -10 -29 -6 -4 -10 -12
-9 -18 4 -33 -1 -41 -15 -22 -13 18 -15 18 -46 -13 -17 -18 -42 -35 -55 -38
-18 -4 -96 -2 -153 6 -2 0 -1 4 3 9 3 5 2 12 -3 15 -5 3 -9 -2 -9 -11 0 -9 19
-24 44 -35 30 -13 43 -24 39 -34 -3 -8 -1 -14 5 -14 6 0 13 9 16 20 4 15 11
18 29 14 13 -4 24 -2 24 4 0 5 11 13 24 16 14 3 33 20 43 36 9 17 21 30 25 30
13 0 9 -17 -7 -30 -8 -7 -15 -17 -15 -23 0 -5 8 -2 19 7 17 15 19 15 25 1 3
-9 2 -13 -4 -10 -5 3 -18 -3 -30 -15 -21 -21 -46 -28 -34 -8 5 8 2 9 -10 5
-10 -4 -20 -7 -22 -7 -2 0 -4 -5 -4 -11 0 -5 5 -7 10 -4 6 3 10 2 10 -4 0 -6
7 -7 17 -4 11 4 14 3 9 -5 -4 -7 -14 -12 -22 -12 -8 0 -14 -5 -14 -11 0 -5 5
-7 11 -4 5 4 22 4 36 0 19 -4 23 -9 14 -18 -18 -18 -13 -29 12 -25 14 2 21 9
19 20 -1 9 2 19 8 23 8 5 8 10 0 20 -8 9 -6 14 5 19 10 3 15 -1 15 -13 0 -25
46 -46 54 -25 10 27 7 34 -29 51 -24 12 -31 19 -23 25 9 5 9 11 3 16 -15 11
-14 64 1 80 8 7 11 18 8 24 -4 6 -1 14 6 18 7 4 8 10 2 13 -5 4 -12 4 -16 0z"/>
<path d="M3060 5260 c-9 -6 -10 -10 -3 -10 6 0 15 5 18 10 8 12 4 12 -15 0z"/>
<path d="M4394 5259 c-4 -7 -3 -9 4 -5 5 3 13 0 15 -6 4 -9 6 -10 6 -1 1 17
-16 25 -25 12z"/>
<path d="M2522 5224 c0 -22 3 -32 6 -24 3 8 10 18 16 22 8 5 6 12 -5 24 -16
15 -17 14 -17 -22z"/>
<path d="M2595 5239 c-4 -6 -5 -12 -2 -15 2 -3 7 2 10 11 7 17 1 20 -8 4z"/>
<path d="M6685 5239 c-4 -6 -3 -15 3 -21 6 -6 11 -4 15 6 7 18 -9 31 -18 15z"/>
<path d="M4471 5224 c0 -11 3 -14 6 -6 3 7 2 16 -1 19 -3 4 -6 -2 -5 -13z"/>
<path d="M2141 5204 c0 -11 3 -14 6 -6 3 7 2 16 -1 19 -3 4 -6 -2 -5 -13z"/>
<path d="M3420 5211 c0 -6 4 -13 10 -16 6 -3 7 1 4 9 -7 18 -14 21 -14 7z"/>
<path d="M2698 5203 c7 -3 16 -2 19 1 4 3 -2 6 -13 5 -11 0 -14 -3 -6 -6z"/>
<path d="M3990 5179 c-22 -18 -22 -19 -3 -10 12 6 25 16 28 21 9 15 3 12 -25
-11z"/>
<path d="M2571 5174 c0 -11 3 -14 6 -6 3 7 2 16 -1 19 -3 4 -6 -2 -5 -13z"/>
<path d="M3450 5186 c0 -2 8 -10 18 -17 15 -13 16 -12 3 4 -13 16 -21 21 -21
13z"/>
<path d="M4345 5159 c-4 -6 -5 -12 -2 -15 2 -3 7 2 10 11 7 17 1 20 -8 4z"/>
<path d="M3502 5144 c17 -20 13 -38 -9 -40 -31 -2 -33 -5 -17 -21 15 -15 17
-15 28 -1 9 12 17 13 29 7 18 -11 23 -39 7 -39 -5 0 -10 5 -10 11 0 6 -7 3
-16 -5 -10 -11 -24 -14 -41 -10 -19 5 -24 4 -18 -6 5 -9 2 -10 -14 -5 -33 10
-66 -2 -78 -27 l-10 -23 -8 25 c-10 33 -26 42 -40 23 -14 -18 -39 -8 -31 13 3
8 0 11 -10 7 -13 -5 -13 -8 2 -24 9 -10 13 -22 9 -28 -4 -7 1 -9 12 -5 15 5
16 4 3 -5 -13 -10 -13 -12 0 -21 8 -5 10 -10 5 -10 -6 0 -16 5 -22 11 -14 14
-48 -71 -40 -101 3 -11 0 -23 -5 -27 -7 -4 -8 -1 -3 7 6 9 4 11 -5 5 -19 -11
32 -51 98 -75 l55 -21 45 43 c24 24 55 53 68 65 20 20 27 21 51 12 15 -7 44
-15 63 -18 32 -6 35 -10 40 -46 l5 -40 75 1 c104 0 130 8 130 39 0 30 31 52
85 60 36 6 43 3 69 -24 29 -30 54 -43 40 -19 -4 7 -3 8 5 4 6 -4 9 -11 6 -16
-3 -4 8 -20 25 -33 l30 -26 47 26 c85 44 103 57 103 71 0 17 -30 75 -44 84 -6
4 -7 8 -3 8 5 0 -1 16 -13 37 -11 20 -18 39 -13 42 4 3 15 15 23 26 8 11 10
16 5 12 -5 -4 -16 7 -25 25 -16 35 -46 45 -44 16 2 -21 -21 -24 -30 -5 -5 9
-7 9 -12 -1 -3 -6 -10 -10 -15 -6 -5 3 -9 1 -9 -4 0 -5 -31 -13 -70 -16 -38
-4 -72 -11 -75 -16 -3 -5 -22 -8 -43 -6 -29 1 -37 6 -37 21 0 14 8 21 24 23
17 3 20 6 11 12 -7 5 -25 4 -38 -1 -34 -13 -211 -12 -246 1 -23 8 -31 7 -40
-5 -7 -10 -18 -13 -29 -9 -25 9 -21 26 6 19 22 -6 22 -6 2 10 -11 9 -29 21
-40 27 -19 10 -19 10 -3 -8z m687 -71 c8 -15 8 -23 1 -23 -5 0 -10 7 -10 16 0
8 -4 12 -10 9 -6 -3 -7 1 -4 10 7 18 7 18 23 -12z m-602 -3 c-1 -11 -2 -20 -4
-20 -1 0 -7 9 -13 20 -8 16 -8 20 4 20 9 0 14 -8 13 -20z m-139 -85 c-3 -3 -9
2 -12 12 -6 14 -5 15 5 6 7 -7 10 -15 7 -18z m-175 -38 c3 -8 -1 -14 -8 -14
-7 0 -11 6 -8 14 3 7 6 13 8 13 2 0 5 -6 8 -13z m-16 -69 c-3 -8 -6 -5 -6 6
-1 11 2 17 5 13 3 -3 4 -12 1 -19z m330 16 c-3 -3 -12 -4 -19 -1 -8 3 -5 6 6
6 11 1 17 -2 13 -5z m633 -39 c0 -5 -5 -3 -10 5 -5 8 -10 20 -10 25 0 6 5 3
10 -5 5 -8 10 -19 10 -25z"/>
<path d="M4265 5150 c-3 -5 1 -10 10 -10 9 0 13 5 10 10 -3 6 -8 10 -10 10 -2
0 -7 -4 -10 -10z"/>
<path d="M4380 5151 c0 -5 5 -13 10 -16 6 -3 10 -2 10 4 0 5 -4 13 -10 16 -5
3 -10 2 -10 -4z"/>
<path d="M5873 5144 c21 -25 43 -27 43 -4 0 9 -6 17 -12 17 -7 0 -10 -7 -6
-16 4 -12 0 -11 -19 4 l-24 20 18 -21z"/>
<path d="M2801 5139 c-32 -13 -22 -20 14 -11 16 5 25 11 20 14 -6 3 -21 2 -34
-3z"/>
<path d="M3910 5135 c-19 -10 -20 -13 -6 -18 10 -4 15 -3 11 3 -3 6 -3 10 2
11 4 0 18 2 30 5 20 3 21 1 14 -35 -1 -2 -9 2 -18 10 -15 10 -14 9 1 -7 13
-13 20 -15 23 -6 3 6 10 9 16 5 9 -5 9 -3 0 8 -6 8 -12 19 -12 24 -1 14 -34
14 -61 0z"/>
<path d="M5285 5140 c-3 -5 -1 -10 4 -10 6 0 11 5 11 10 0 6 -2 10 -4 10 -3 0
-8 -4 -11 -10z"/>
<path d="M4944 5127 c1 -8 10 -25 19 -38 l18 -24 -13 25 c-7 14 -12 28 -13 32
0 3 -3 9 -7 13 -3 4 -6 0 -4 -8z"/>
<path d="M5520 5129 c0 -5 5 -7 10 -4 6 3 10 8 10 11 0 2 -4 4 -10 4 -5 0 -10
-5 -10 -11z"/>
<path d="M4248 5119 c-27 -15 -21 -29 7 -16 14 7 25 15 25 20 0 10 -11 8 -32
-4z"/>
<path d="M2597 5107 c-3 -9 1 -18 9 -21 16 -6 18 2 5 22 -7 11 -9 11 -14 -1z"/>
<path d="M4906 5112 c-3 -5 1 -9 9 -9 8 0 12 4 9 9 -3 4 -7 8 -9 8 -2 0 -6 -4
-9 -8z"/>
<path d="M2137 5103 c-9 -2 -15 -9 -12 -14 9 -14 22 -11 29 6 3 8 4 14 3 14
-1 -1 -10 -3 -20 -6z"/>
<path d="M4020 5100 c-13 -8 -12 -10 3 -10 9 0 17 5 17 10 0 12 -1 12 -20 0z"/>
<path d="M5245 5100 c-13 -20 -82 -48 -125 -51 -25 -1 -62 5 -84 15 -22 9 -41
14 -44 11 -3 -3 0 -5 7 -5 7 0 11 -7 8 -14 -4 -10 -1 -13 8 -10 8 3 22 1 32
-6 17 -10 17 -11 -2 -6 -11 3 -27 1 -35 -5 -12 -8 -9 -9 9 -4 15 5 21 3 17 -3
-3 -6 -1 -14 5 -18 7 -4 9 -3 6 3 -4 6 5 15 20 22 23 10 25 10 15 -2 -18 -21
3 -33 57 -35 48 -1 56 -5 46 -21 -8 -14 -62 -14 -70 -1 -5 8 -11 7 -21 -1 -13
-11 -28 -14 -76 -18 -26 -2 -22 -21 4 -21 28 0 13 -16 -24 -25 -20 -5 -28 -3
-28 5 0 7 -8 3 -19 -8 -23 -27 -31 -28 -24 -3 3 10 1 21 -4 24 -7 5 -10 -42
-5 -100 2 -25 22 -32 22 -8 0 8 5 15 11 15 5 0 7 -4 4 -10 -3 -5 0 -10 7 -10
9 -1 7 -5 -4 -14 -24 -18 -23 -29 1 -17 23 13 161 18 217 9 33 -6 46 -4 63 11
15 13 18 21 10 26 -6 4 -15 1 -20 -6 -6 -9 -9 -10 -9 -2 0 7 8 17 18 22 9 6
11 11 5 11 -8 0 -13 12 -12 28 0 15 3 21 6 13 5 -11 7 -11 14 0 6 10 9 6 9
-13 0 -16 5 -28 10 -28 6 0 10 9 10 20 0 13 15 27 48 44 26 13 58 33 72 45
l25 22 -43 -22 c-23 -11 -44 -25 -47 -30 -3 -4 -13 -5 -22 -2 -11 4 -14 3 -9
-5 4 -7 2 -12 -3 -12 -6 0 -11 7 -11 15 0 8 7 15 15 15 8 0 15 5 15 10 0 6 -3
9 -7 9 -29 -5 -21 5 22 27 28 14 39 23 25 20 -70 -17 -80 -18 -80 -6 0 7 6 10
13 7 10 -4 13 2 9 18 -5 31 -33 41 -49 19 -12 -16 -17 -12 -14 8 0 4 -7 4 -17
1 -15 -6 -15 -4 -4 10 8 8 19 14 27 11 7 -3 16 -1 20 5 4 7 -1 8 -12 4 -16 -6
-16 -5 -4 10 7 9 11 17 8 17 -3 0 -9 -5 -12 -10z m-19 -64 c16 -13 17 -15 3
-21 -8 -3 -28 1 -43 9 -18 9 -23 16 -14 19 22 9 33 8 54 -7z m47 -26 c-3 -11
-9 -20 -14 -20 -10 0 -12 24 -2 33 13 13 21 7 16 -13z m-156 -1 c-11 -7 -23
-7 -28 -2 -5 5 3 9 19 11 24 1 25 0 9 -9z m60 5 c-3 -3 -12 -4 -19 -1 -8 3 -5
6 6 6 11 1 17 -2 13 -5z m100 -106 c-3 -8 -6 -5 -6 6 -1 11 2 17 5 13 3 -3 4
-12 1 -19z m-87 -78 c-20 -13 -33 -13 -25 0 3 6 14 10 23 10 15 0 15 -2 2 -10z
m15 -20 c3 -5 -1 -10 -9 -10 -9 0 -16 5 -16 10 0 6 4 10 9 10 6 0 13 -4 16
-10z"/>
<path d="M2274 5086 c11 -9 27 -16 35 -15 14 0 14 1 1 6 -8 3 -24 10 -35 15
-20 9 -20 9 -1 -6z"/>
<path d="M2655 5079 c-4 -6 -4 -13 -1 -16 3 -4 6 0 6 8 1 8 9 -2 20 -21 23
-41 27 -32 5 10 -17 33 -21 35 -30 19z"/>
<path d="M3920 5079 c0 -5 5 -7 10 -4 6 3 10 8 10 11 0 2 -4 4 -10 4 -5 0 -10
-5 -10 -11z"/>
<path d="M5910 5086 c0 -2 8 -10 18 -17 15 -13 16 -12 3 4 -13 16 -21 21 -21
13z"/>
<path d="M5976 5058 c10 -20 22 -35 27 -31 5 3 4 9 -3 13 -7 5 -9 13 -5 21 5
8 5 11 0 7 -4 -4 -14 0 -22 10 -8 11 -7 3 3 -20z"/>
<path d="M6052 5078 c5 -15 28 -23 28 -10 0 5 -7 13 -16 16 -10 4 -14 1 -12
-6z"/>
<path d="M2250 5072 c0 -5 11 -15 25 -22 21 -11 27 -11 38 0 9 10 9 11 -1 6
-7 -4 -24 0 -37 8 -14 9 -25 13 -25 8z"/>
<path d="M3156 5064 c-10 -26 -7 -29 9 -8 9 12 14 14 15 6 0 -7 5 -10 10 -7 6
3 10 1 10 -6 0 -7 2 -10 5 -7 3 3 3 13 -1 22 -8 21 -40 21 -48 0z"/>
<path d="M2201 5059 c-13 -5 -21 -12 -18 -15 3 -3 18 1 34 10 31 17 21 20 -16
5z"/>
<path d="M2257 5030 c18 -11 40 -17 49 -13 11 4 5 10 -23 19 -54 19 -63 17
-26 -6z"/>
<path d="M2349 5023 c-13 -14 -19 -23 -12 -20 6 4 14 1 16 -5 4 -10 6 -10 6 0
1 6 1 15 0 18 0 3 8 12 18 20 10 7 13 14 7 14 -6 0 -21 -12 -35 -27z"/>
<path d="M2666 5030 c8 -27 8 -35 5 -65 -2 -18 -3 -18 -17 5 l-15 25 7 -25 c6
-24 6 -24 -9 -5 -9 11 -19 17 -23 13 -4 -4 -1 -14 5 -22 11 -13 7 -14 -26 -10
-29 4 -34 3 -23 -5 8 -6 25 -11 38 -11 12 0 22 -5 22 -11 0 -6 -9 -8 -21 -4
-15 5 -19 4 -15 -4 4 -7 -1 -11 -13 -11 -20 0 -34 -14 -38 -39 -1 -10 1 -11
10 -2 15 15 38 14 35 -1 -2 -7 -16 -19 -33 -25 -29 -12 -28 -12 16 -7 43 5 65
-4 68 -28 1 -5 1 -9 2 -10 6 -18 11 -63 13 -106 2 -48 6 -56 34 -74 31 -19 38
-16 33 15 -1 5 3 6 8 2 6 -3 16 3 23 15 10 15 23 20 60 20 45 0 49 -2 73 -41
l26 -40 32 18 c20 12 33 28 35 44 2 13 6 31 9 39 3 8 5 19 4 23 -1 5 3 6 9 2
5 -3 20 1 32 9 12 9 34 16 48 16 22 1 23 2 7 11 -9 5 -22 7 -29 3 -6 -4 -8 -3
-5 3 7 12 -46 66 -56 57 -4 -4 -2 -13 4 -21 6 -7 7 -13 3 -13 -5 0 -15 9 -22
21 -8 12 -9 18 -3 15 5 -4 16 3 24 15 l15 21 4 -23 c3 -23 3 -23 15 3 10 23
10 26 -3 21 -10 -4 -12 0 -8 11 3 9 10 16 16 16 5 0 6 10 3 21 -5 16 -4 19 6
14 9 -6 11 3 5 41 -4 27 -8 55 -9 61 0 7 -3 11 -5 8 -3 -3 -6 -31 -7 -62 -2
-76 -16 -107 -64 -139 -73 -48 -166 -42 -233 14 -22 19 -33 23 -36 14 -3 -10
-8 -8 -17 5 -36 53 -47 74 -39 72 21 -4 28 2 14 12 -13 9 -13 10 0 6 8 -2 17
-12 18 -22 3 -12 0 -15 -8 -10 -8 5 -11 3 -8 -6 3 -8 10 -13 16 -12 5 1 9 -3
8 -10 0 -7 4 -13 9 -13 6 -1 8 3 6 10 -13 41 -21 91 -16 107 3 10 -1 31 -10
46 -15 26 -15 27 -9 3z m-76 -144 c0 -2 -9 -6 -20 -9 -11 -3 -18 -1 -14 4 5 9
34 13 34 5z m47 -12 c-3 -3 -12 -4 -19 -1 -8 3 -5 6 6 6 11 1 17 -2 13 -5z
m32 -42 c0 -14 -2 -13 -9 3 -8 18 -9 18 -9 2 -1 -10 -6 -15 -11 -12 -8 5 -7
11 1 21 14 17 29 9 28 -14z m98 -36 c7 -7 -6 -26 -17 -26 -5 0 -14 9 -20 19
-9 17 -7 19 11 16 12 -3 24 -6 26 -9z m216 -26 c14 -17 14 -20 2 -20 -8 0 -15
6 -15 14 0 8 -8 17 -17 19 -14 4 -14 5 -3 6 9 0 23 -8 33 -19z m-279 -1 c3 -3
-4 -5 -14 -6 -11 -1 -22 2 -24 6 -5 8 30 8 38 0z m191 -107 c-3 -3 -11 0 -18
7 -9 10 -8 11 6 5 10 -3 15 -9 12 -12z m62 -18 c-3 -3 -12 -4 -19 -1 -8 3 -5
6 6 6 11 1 17 -2 13 -5z"/>
<path d="M2740 4790 c0 -5 5 -10 11 -10 5 0 7 5 4 10 -3 6 -8 10 -11 10 -2 0
-4 -4 -4 -10z"/>
<path d="M5465 5039 c-11 -17 1 -21 15 -4 8 9 8 15 2 15 -6 0 -14 -5 -17 -11z"/>
<path d="M2390 5009 c0 -5 5 -7 10 -4 6 3 10 8 10 11 0 2 -4 4 -10 4 -5 0 -10
-5 -10 -11z"/>
<path d="M2300 5000 c0 -5 5 -10 10 -10 6 0 10 5 10 10 0 6 -4 10 -10 10 -5 0
-10 -4 -10 -10z"/>
<path d="M4795 4989 c-4 -6 -14 -8 -22 -4 -13 4 -14 3 -3 -10 7 -9 13 -14 14
-13 1 2 8 11 15 21 7 9 11 17 8 17 -3 0 -9 -5 -12 -11z"/>
<path d="M5980 4986 c8 -8 29 -16 45 -18 17 -3 24 -3 18 -1 -7 3 -13 11 -13
19 0 8 -5 14 -11 14 -5 0 -7 -4 -4 -10 3 -5 -1 -10 -9 -10 -9 0 -16 5 -16 10
0 6 -5 10 -12 10 -8 0 -8 -4 2 -14z"/>
<path d="M6048 4983 c7 -3 16 -2 19 1 4 3 -2 6 -13 5 -11 0 -14 -3 -6 -6z"/>
<path d="M2335 4970 c-3 -5 -1 -10 4 -10 6 0 11 5 11 10 0 6 -2 10 -4 10 -3 0
-8 -4 -11 -10z"/>
<path d="M5340 4970 c-13 -9 -13 -10 0 -10 8 0 22 5 30 10 13 9 13 10 0 10 -8
0 -22 -5 -30 -10z"/>
<path d="M5712 4968 c-15 -15 -15 -38 -1 -58 8 -12 10 -9 6 13 -2 15 -1 27 3
27 4 0 10 7 14 15 7 18 -5 20 -22 3z"/>
<path d="M5765 4970 c-3 -5 -2 -10 4 -10 6 0 17 -12 26 -27 l15 -28 -6 30
c-10 46 -24 59 -39 35z"/>
<path d="M4810 4946 c6 -8 19 -12 27 -9 14 6 14 8 -3 14 -30 12 -37 10 -24 -5z"/>
<path d="M5543 4925 c0 -8 4 -15 8 -15 3 0 9 -10 12 -22 4 -12 9 -19 12 -16 6
5 -21 68 -29 68 -1 0 -3 -7 -3 -15z"/>
<path d="M5762 4920 c-15 -24 -16 -44 -2 -35 6 4 8 10 5 15 -3 5 -1 11 5 15 5
3 10 1 10 -6 0 -7 3 -10 6 -6 3 3 2 12 -3 21 -7 13 -10 13 -21 -4z"/>
<path d="M2555 4920 c3 -5 11 -10 16 -10 6 0 7 5 4 10 -3 6 -11 10 -16 10 -6
0 -7 -4 -4 -10z"/>
<path d="M4875 4920 c6 -10 4 -12 -11 -6 -15 6 -17 5 -6 -5 9 -9 15 -10 23 -2
8 8 7 13 -2 18 -8 6 -10 4 -4 -5z"/>
<path d="M5732 4885 c0 -16 2 -22 5 -12 2 9 2 23 0 30 -3 6 -5 -1 -5 -18z"/>
<path d="M5943 4894 c-15 -12 -15 -13 -1 -8 9 3 26 1 37 -6 26 -13 27 -9 2 12
-17 14 -22 15 -38 2z"/>
<path d="M5805 4890 c3 -6 13 -10 22 -10 9 0 13 -6 10 -14 -3 -7 0 -19 6 -25
8 -8 5 -11 -10 -11 -21 0 -40 -16 -30 -26 11 -11 55 9 60 27 4 16 11 19 34 14
24 -4 25 -4 8 5 -17 9 -16 10 8 6 16 -2 25 0 20 5 -5 5 -24 9 -43 10 -19 2
-39 6 -45 9 -20 13 -46 20 -40 10z m70 -30 c-3 -5 -12 -10 -18 -10 -7 0 -6 4
3 10 19 12 23 12 15 0z"/>
<path d="M3151 4874 c0 -11 3 -14 6 -6 3 7 2 16 -1 19 -3 4 -6 -2 -5 -13z"/>
<path d="M2490 4860 c18 -12 40 -13 40 -2 0 4 -12 9 -27 10 -22 1 -24 0 -13
-8z"/>
<path d="M5632 4863 c-10 -4 -8 -9 8 -20 16 -12 24 -12 35 -3 27 22 -5 39 -43
23z m35 -9 c-3 -3 -12 -4 -19 -1 -8 3 -5 6 6 6 11 1 17 -2 13 -5z"/>
<path d="M6009 4866 c-1 -3 -2 -10 -3 -15 0 -5 -4 -13 -8 -17 -5 -4 -8 -17 -7
-28 0 -15 2 -16 6 -6 3 8 14 22 25 31 18 14 18 17 4 28 -9 8 -17 11 -17 7z"/>
<path d="M3063 4838 c-2 -16 1 -17 13 -8 11 10 14 9 14 -5 0 -14 3 -15 14 -6
10 9 15 8 20 -4 3 -8 10 -15 16 -15 13 0 13 47 0 55 -5 3 -10 1 -10 -6 0 -7
-4 -8 -12 -2 -24 17 -54 13 -55 -9z"/>
<path d="M5967 4853 c-10 -9 -9 -23 1 -23 5 0 9 7 9 15 0 17 -1 18 -10 8z"/>
<path d="M2480 4840 c0 -6 7 -10 15 -10 8 0 15 2 15 4 0 2 -7 6 -15 10 -8 3
-15 1 -15 -4z"/>
<path d="M2498 4813 c7 -3 16 -2 19 1 4 3 -2 6 -13 5 -11 0 -14 -3 -6 -6z"/>
<path d="M2538 4808 c-50 -13 -48 -22 7 -26 42 -2 60 10 33 22 -7 3 -4 5 7 3
11 -1 20 -9 20 -16 0 -8 5 -16 11 -18 6 -2 10 7 9 19 -2 27 -29 32 -87 16z"/>
<path d="M3040 4789 c0 -5 15 -19 34 -30 19 -11 33 -26 30 -32 -5 -14 29 -38
42 -29 5 4 16 16 24 27 14 19 14 20 -6 3 -26 -22 -44 -23 -44 -2 0 10 5 14 16
10 8 -3 13 -2 9 3 -11 19 7 42 29 35 18 -6 19 -5 7 10 -10 12 -17 13 -27 5 -7
-6 -19 -7 -25 -3 -7 4 -9 3 -6 -3 4 -6 0 -14 -9 -17 -8 -3 -12 -2 -9 3 3 5 0
13 -7 17 -19 12 -58 14 -58 3z"/>
</g>
</svg>
